# xmcd
#
# Track frame offsets: 
#        150
#        8875
#        29337
#        49962
#        60422
#        71100
#        85532
#        98567
#        107997
#        115702
#        130292
#        147412
#        160215
#        171110
#        179727
#        186087
#        192010
#        208532
#        217580
#        233937
#        245665
#
# Disc length: 3513 seconds
#
# Revision: 2
# Processed by: cddbd v1.5.2PL0 Copyright (c) Steve Scherf et al.
# Submitted via: ExactAudioCopy v1.3
#
DISCID=260db715
DTITLE=Cornelis Vreeswijk - Cornelis bästa
DYEAR=2000
DGENRE=Blues
TTITLE0=Personliga Person
TTITLE1=Getinghonung Provencale
TTITLE2=Saskia
TTITLE3=Om Jag Vore Arbetslös
TTITLE4=Dekadans
TTITLE5=Den Falska Flickan
TTITLE6=Blues För Inga-Maj
TTITLE7=Grimasch Om Morgonen
TTITLE8=Ingrid Dardels Polska
TTITLE9=Vals i Valparaiso
TTITLE10=Dansen på Sunnanö
TTITLE11=Den Glade Bagarn I San Remo
TTITLE12=Hajaru de då Jack?
TTITLE13=Morbror Frans
TTITLE14=Bibbis Visa
TTITLE15=Telegram För en Bombad By
TTITLE16=Balladen Om Flykten
TTITLE17=Jultomten är Faktiskt Död
TTITLE18=Polaren Per Hos Det Sociala
TTITLE19=Ep.68 Movitz I Afton Står Baln
TTITLE20=Ep.71 Ulla Min Ulla Säg För Jag Dig Bjuda
EXTD=
EXTT0=
EXTT1=
EXTT2=
EXTT3=
EXTT4=
EXTT5=
EXTT6=
EXTT7=
EXTT8=
EXTT9=
EXTT10=
EXTT11=
EXTT12=
EXTT13=
EXTT14=
EXTT15=
EXTT16=
EXTT17=
EXTT18=
EXTT19=
EXTT20=
PLAYORDER=
